<svg width="16" height="16" viewBox="0 0 16 16" fill="none" xmlns="http://www.w3.org/2000/svg">
<path fill-rule="evenodd" clip-rule="evenodd" d="M2.51044 5.97917C2.29758 5.97917 2.12502 6.15172 2.12502 6.36459V15.2292H1.35419V6.36459C1.35419 5.72599 1.87186 5.20834 2.51044 5.20834H7.13544C7.77403 5.20834 8.29169 5.72599 8.29169 6.36459V15.2292H7.52085V6.36459C7.52085 6.15172 7.3483 5.97917 7.13544 5.97917H2.51044Z" fill="#929292"/>
<path fill-rule="evenodd" clip-rule="evenodd" d="M14.0729 6.75H11.3749V5.97916H14.0729C14.7115 5.97916 15.2291 6.49682 15.2291 7.13541V15.2292H14.4583V7.13541C14.4583 6.92255 14.2857 6.75 14.0729 6.75Z" fill="#929292"/>
<path fill-rule="evenodd" clip-rule="evenodd" d="M5.97919 1.35417C5.76632 1.35417 5.59377 1.52673 5.59377 1.73959V5.59375H4.82294V1.73959C4.82294 1.10101 5.34059 0.583336 5.97919 0.583336H10.6042C11.2428 0.583336 11.7604 1.10101 11.7604 1.73959V15.2292H10.9896V1.73959C10.9896 1.52673 10.8171 1.35417 10.6042 1.35417H5.97919Z" fill="#929292"/>
<path fill-rule="evenodd" clip-rule="evenodd" d="M16 16H0.583313V15.2292H16V16Z" fill="#929292"/>
<path fill-rule="evenodd" clip-rule="evenodd" d="M6.74998 2.12501C6.53711 2.12501 6.36456 2.29757 6.36456 2.51042V3.28126C6.36456 3.49412 6.53711 3.66667 6.74998 3.66667H7.52081C7.73368 3.66667 7.90623 3.49412 7.90623 3.28126V2.51042C7.90623 2.29757 7.73368 2.12501 7.52081 2.12501H6.74998Z" fill="#929292"/>
<path fill-rule="evenodd" clip-rule="evenodd" d="M3.28123 6.75C3.06836 6.75 2.89581 6.92255 2.89581 7.13542V7.90625C2.89581 8.11912 3.06836 8.29167 3.28123 8.29167H4.05206C4.26493 8.29167 4.43748 8.11912 4.43748 7.90625V7.13542C4.43748 6.92255 4.26493 6.75 4.05206 6.75H3.28123Z" fill="#929292"/>
<path fill-rule="evenodd" clip-rule="evenodd" d="M5.59373 6.75C5.38086 6.75 5.20831 6.92255 5.20831 7.13542V7.90625C5.20831 8.11912 5.38086 8.29167 5.59373 8.29167H6.36456C6.57743 8.29167 6.74998 8.11912 6.74998 7.90625V7.13542C6.74998 6.92255 6.57743 6.75 6.36456 6.75H5.59373Z" fill="#929292"/>
<path fill-rule="evenodd" clip-rule="evenodd" d="M6.74998 4.43751C6.53711 4.43751 6.36456 4.61006 6.36456 4.82292V5.59376C6.36456 5.80662 6.53711 5.97917 6.74998 5.97917H7.52081C7.73368 5.97917 7.90623 5.80662 7.90623 5.59376V4.82292C7.90623 4.61006 7.73368 4.43751 7.52081 4.43751H6.74998Z" fill="#929292"/>
<path fill-rule="evenodd" clip-rule="evenodd" d="M3.28123 9.0625C3.06836 9.0625 2.89581 9.23505 2.89581 9.44792V10.2187C2.89581 10.4316 3.06836 10.6042 3.28123 10.6042H4.05206C4.26493 10.6042 4.43748 10.4316 4.43748 10.2187V9.44792C4.43748 9.23505 4.26493 9.0625 4.05206 9.0625H3.28123Z" fill="#929292"/>
<path fill-rule="evenodd" clip-rule="evenodd" d="M3.28123 11.375C3.06836 11.375 2.89581 11.5476 2.89581 11.7604V12.5312C2.89581 12.7441 3.06836 12.9167 3.28123 12.9167H4.05206C4.26493 12.9167 4.43748 12.7441 4.43748 12.5312V11.7604C4.43748 11.5476 4.26493 11.375 4.05206 11.375H3.28123Z" fill="#929292"/>
<path fill-rule="evenodd" clip-rule="evenodd" d="M5.59373 9.0625C5.38086 9.0625 5.20831 9.23505 5.20831 9.44792V10.2187C5.20831 10.4316 5.38086 10.6042 5.59373 10.6042H6.36456C6.57743 10.6042 6.74998 10.4316 6.74998 10.2187V9.44792C6.74998 9.23505 6.57743 9.0625 6.36456 9.0625H5.59373Z" fill="#929292"/>
<path fill-rule="evenodd" clip-rule="evenodd" d="M5.59373 11.375C5.38086 11.375 5.20831 11.5476 5.20831 11.7604V12.5312C5.20831 12.7441 5.38086 12.9167 5.59373 12.9167H6.36456C6.57743 12.9167 6.74998 12.7441 6.74998 12.5312V11.7604C6.74998 11.5476 6.57743 11.375 6.36456 11.375H5.59373Z" fill="#929292"/>
<path fill-rule="evenodd" clip-rule="evenodd" d="M9.06248 2.12501C8.84961 2.12501 8.67706 2.29757 8.67706 2.51042V3.28126C8.67706 3.49412 8.84961 3.66667 9.06248 3.66667H9.83331C10.0462 3.66667 10.2187 3.49412 10.2187 3.28126V2.51042C10.2187 2.29757 10.0462 2.12501 9.83331 2.12501H9.06248Z" fill="#929292"/>
<path fill-rule="evenodd" clip-rule="evenodd" d="M9.06248 4.43751C8.84961 4.43751 8.67706 4.61006 8.67706 4.82292V5.59376C8.67706 5.80662 8.84961 5.97917 9.06248 5.97917H9.83331C10.0462 5.97917 10.2187 5.80662 10.2187 5.59376V4.82292C10.2187 4.61006 10.0462 4.43751 9.83331 4.43751H9.06248Z" fill="#929292"/>
<path fill-rule="evenodd" clip-rule="evenodd" d="M9.06248 6.75C8.84961 6.75 8.67706 6.92255 8.67706 7.13542V7.90625C8.67706 8.11912 8.84961 8.29167 9.06248 8.29167H9.83331C10.0462 8.29167 10.2187 8.11912 10.2187 7.90625V7.13542C10.2187 6.92255 10.0462 6.75 9.83331 6.75H9.06248Z" fill="#929292"/>
<path fill-rule="evenodd" clip-rule="evenodd" d="M9.06248 9.0625C8.84961 9.0625 8.67706 9.23505 8.67706 9.44792V10.2187C8.67706 10.4316 8.84961 10.6042 9.06248 10.6042H9.83331C10.0462 10.6042 10.2187 10.4316 10.2187 10.2187V9.44792C10.2187 9.23505 10.0462 9.0625 9.83331 9.0625H9.06248Z" fill="#929292"/>
<path fill-rule="evenodd" clip-rule="evenodd" d="M12.5312 7.52084C12.3184 7.52084 12.1458 7.69339 12.1458 7.90625V8.67709C12.1458 8.88995 12.3184 9.0625 12.5312 9.0625H13.3021C13.5149 9.0625 13.6875 8.88995 13.6875 8.67709V7.90625C13.6875 7.69339 13.5149 7.52084 13.3021 7.52084H12.5312Z" fill="#929292"/>
<path fill-rule="evenodd" clip-rule="evenodd" d="M12.5312 9.83334C12.3184 9.83334 12.1458 10.0059 12.1458 10.2188V10.9896C12.1458 11.2025 12.3184 11.375 12.5312 11.375H13.3021C13.5149 11.375 13.6875 11.2025 13.6875 10.9896V10.2188C13.6875 10.0059 13.5149 9.83334 13.3021 9.83334H12.5312Z" fill="#929292"/>
<path fill-rule="evenodd" clip-rule="evenodd" d="M12.5312 12.1458C12.3184 12.1458 12.1458 12.3184 12.1458 12.5313V13.3021C12.1458 13.515 12.3184 13.6875 12.5312 13.6875H13.3021C13.5149 13.6875 13.6875 13.515 13.6875 13.3021V12.5313C13.6875 12.3184 13.5149 12.1458 13.3021 12.1458H12.5312Z" fill="#929292"/>
<path fill-rule="evenodd" clip-rule="evenodd" d="M9.06248 11.375C8.84961 11.375 8.67706 11.5476 8.67706 11.7604V12.5312C8.67706 12.7441 8.84961 12.9167 9.06248 12.9167H9.83331C10.0462 12.9167 10.2187 12.7441 10.2187 12.5312V11.7604C10.2187 11.5476 10.0462 11.375 9.83331 11.375H9.06248Z" fill="#929292"/>
</svg>
