<svg width="35" height="35" viewBox="0 0 35 35" fill="none" xmlns="http://www.w3.org/2000/svg">
<path d="M17.5 0.625C8.185 0.625 0.625 8.185 0.625 17.5C0.625 26.815 8.185 34.375 17.5 34.375C26.815 34.375 34.375 26.815 34.375 17.5C34.375 8.185 26.815 0.625 17.5 0.625ZM17.5 6.65179C23.4882 6.65179 28.3482 11.5118 28.3482 17.5C28.3482 19.1183 27.9863 20.6497 27.35 22.0295L12.9611 7.64997C14.3429 7.01148 15.8786 6.65179 17.5 6.65179V6.65179ZM7.78181 12.6974L22.312 27.2182C20.8609 27.9388 19.2291 28.3482 17.5 28.3482C11.5118 28.3482 6.65179 23.4882 6.65179 17.5C6.65179 15.7739 7.06357 14.1466 7.78181 12.6974V12.6974Z" fill="#929292"/>
</svg>
