<svg height="16" width="16" xmlns="http://www.w3.org/2000/svg"><path d="m8.464261 3.999982c-4.4182777 0-7.9999997 2.91629-7.9999997 6.53125 0 2.302655 1.459222 4.333261 3.65625 5.5-.08355.608184-.480102 2.115864-2.28125 2.625 2.332827.253533 3.89629-.891527 4.71875-1.75.6117587.122546 1.2483267.1875 1.9062497.1875 4.418278 0 8-2.94754 8-6.5625s-3.581722-6.53125-8-6.53125zm-1.9999997 2.5 1.9999997 2 2-2 2 2-2 2 2 2-2 2-2-2-1.9999997 2-2-2 2-2-2-2z" fill="#d40000" transform="translate(-.464261 -2.999982)"/></svg>