<svg width="18" height="18" viewBox="0 0 18 18" fill="none" xmlns="http://www.w3.org/2000/svg">
<path d="M17.6168 13.9113L13.5 9.79453C12.6879 8.98242 11.475 8.82422 10.4977 9.30586L6.75005 5.5582V3.375L2.25005 0L4.88004e-05 2.25L3.37505 6.75H5.55825L9.3059 10.4977C8.82778 11.475 8.98247 12.6879 9.79457 13.5L13.9114 17.6168C14.4247 18.1301 15.2543 18.1301 15.7641 17.6168L17.6168 15.7641C18.1266 15.2508 18.1266 14.4211 17.6168 13.9113V13.9113ZM11.6614 7.91016C12.6563 7.91016 13.5914 8.29688 14.2946 9L14.9766 9.68203C15.5321 9.43945 16.0594 9.10195 16.5164 8.64492C17.8207 7.34062 18.2637 5.50547 17.8489 3.83906C17.7715 3.52266 17.3743 3.41367 17.1422 3.6457L14.5266 6.26133L12.1395 5.86406L11.7422 3.47695L14.3579 0.861328C14.5899 0.629297 14.4774 0.232031 14.1575 0.151172C12.4911 -0.260156 10.6559 0.182813 9.35512 1.48359C8.35317 2.48555 7.88208 3.80742 7.90669 5.12578L10.793 8.01211C11.0778 7.94531 11.3731 7.91016 11.6614 7.91016V7.91016ZM8.00864 10.793L6.01528 8.79961L0.65747 14.1609C-0.221435 15.0398 -0.221435 16.4637 0.65747 17.3426C1.53638 18.2215 2.9602 18.2215 3.83911 17.3426L8.18442 12.9973C7.91723 12.2977 7.83637 11.5348 8.00864 10.793V10.793ZM2.25005 16.5938C1.78599 16.5938 1.4063 16.2141 1.4063 15.75C1.4063 15.2824 1.78247 14.9062 2.25005 14.9062C2.71763 14.9062 3.0938 15.2824 3.0938 15.75C3.0938 16.2141 2.71763 16.5938 2.25005 16.5938Z" fill="white"/>
</svg>
